# xmcd
#
# Track frame offsets:
# 150
# 38350
# 110065
# 138515
# 169835
# 198177
#
# Disc length: 3181 seconds
#
#
# Revision: 0
# Processed by: cddbd v1.5.2PL0 Copyright (c) Steve Scherf et al.
# Submitted via: FreeRIP 2.951 
#
DISCID=4a0c6b06
DTITLE=Canned Heat - Jammin´ with Kaleidoscope [CD1)
DYEAR=1990
DGENRE=Boogie
TTITLE0=I found Love
TTITLE1=Catfish Blues
TTITLE2=Bullfrog Blues
TTITLE3=Brand New Baby
TTITLE4=Killing Floor
TTITLE5=Bring it on Home
EXTD=Live in Boston, June 29, 1970.
EXTT0=
EXTT1=
EXTT2=
EXTT3=
EXTT4=
EXTT5=
PLAYORDER=
